HIERARCHY
ROOT Hips
{
  OFFSET 3.13124 94.3669 -3.18751
  CHANNELS  6 Xposition Yposition Zposition Zrotation Xrotation Yrotation
  JOINT LeftUpLeg
  {
    OFFSET 8.64259 1.95398 -2.38835
    CHANNELS 3 Zrotation Xrotation Yrotation
    JOINT LeftLeg
    {
      OFFSET 43.7702 0 0
      CHANNELS 3 Zrotation Xrotation Yrotation
      JOINT LeftFoot
      {
        OFFSET 40.6238 0 0
        CHANNELS 3 Zrotation Xrotation Yrotation
        JOINT LeftToeBase
        {
          OFFSET 12.7242 0 0
          CHANNELS 3 Zrotation Xrotation Yrotation
          End Site
          {
            OFFSET 0 0 0
          }
        }
      }
    }
  }
  JOINT RightUpLeg
  {
    OFFSET -8.2249 1.95398 -2.59336
    CHANNELS 3 Zrotation Xrotation Yrotation
    JOINT RightLeg
    {
      OFFSET 43.5653 0 0
      CHANNELS 3 Zrotation Xrotation Yrotation
      JOINT RightFoot
      {
        OFFSET 40.6238 0 0
        CHANNELS 3 Zrotation Xrotation Yrotation
        JOINT RightToeBase
        {
          OFFSET 12.7242 0 0
          CHANNELS 3 Zrotation Xrotation Yrotation
          End Site
          {
            OFFSET 0 0 0
          }
        }
      }
    }
  }
  JOINT Spine
  {
    OFFSET 0.165834 0.87714 6.61349
    CHANNELS 3 Zrotation Xrotation Yrotation
    JOINT Spine1
    {
      OFFSET 7.38962 1.71661e-005 0
      CHANNELS 3 Zrotation Xrotation Yrotation
      JOINT Spine2
      {
        OFFSET 11.9445 1.14441e-005 0
        CHANNELS 3 Zrotation Xrotation Yrotation
        JOINT Spine3
        {
          OFFSET 14.7254 4.19617e-005 0
          CHANNELS 3 Zrotation Xrotation Yrotation
          JOINT Spine4
          {
            OFFSET 10.9679 0 0
            CHANNELS 3 Zrotation Xrotation Yrotation
            JOINT RightShoulder
            {
              OFFSET 2.46616 -1.6653 3.69651
              CHANNELS 3 Zrotation Xrotation Yrotation
              JOINT RightArm
              {
                OFFSET 13.0012 0 0
                CHANNELS 3 Zrotation Xrotation Yrotation
                JOINT RightForeArm
                {
                  OFFSET 28.7848 1.52588e-005 0
                  CHANNELS 3 Zrotation Xrotation Yrotation
                  JOINT RightHand
                  {
                    OFFSET 26.5688 1.52588e-005 0
                    CHANNELS 3 Zrotation Xrotation Yrotation
                    End Site
                    {
                      OFFSET 0 0 0
                    }
                  }
                }
              }
            }
            JOINT LeftShoulder
            {
              OFFSET 2.38034 -1.29275 -3.75231
              CHANNELS 3 Zrotation Xrotation Yrotation
              JOINT LeftArm
              {
                OFFSET 16.3182 6.10352e-005 0
                CHANNELS 3 Zrotation Xrotation Yrotation
                JOINT LeftForeArm
                {
                  OFFSET 27.0901 0 0
                  CHANNELS 3 Zrotation Xrotation Yrotation
                  JOINT LeftHand
                  {
                    OFFSET 24.5451 1.52588e-005 0
                    CHANNELS 3 Zrotation Xrotation Yrotation
                    End Site
                    {
                      OFFSET 0 0 0
                    }
                  }
                }
              }
            }
            JOINT Neck
            {
              OFFSET 5.0226 -0.0266342 0
              CHANNELS 3 Zrotation Xrotation Yrotation
              JOINT Head
              {
                OFFSET 6.69363 2.86102e-005 0
                CHANNELS 3 Zrotation Xrotation Yrotation
                End Site
                {
                  OFFSET 0 0 0
                }
              }
            }
          }
        }
      }
    }
  }
}
MOTION
Frames:	10
Frame Time:	0.0333333
-42.5501 78.3665 -116.462 -82.2574 -34.6409 -94.5323 -167.209 30.9445 100.137 -64.3932 -20.1793 5.9176 53.9453 9.86521 6.38679 28.7808 5.1905e-006 4.31485e-006 -179.48 55.2883 87.8471 -63.5793 22.118 0.659284 70.5335 -1.31455 -0.677605 28.7808 1.31024e-005 2.74892e-005 -2.13523 9.29202 -85.0941 8.04434 -1.61955 -0.361186 -3.62563 -1.63389 -0.289528 -26.1671 -1.43612 -0.831314 -6.15443 -1.43613 -0.83132 95.2726 -42.6794 -93.7748 15.8546 41.7437 -34.421 -7.75394 1.67933 -17.5292 -5.37983 -0.320005 -0.0162415 -94.4472 -48.4209 71.6639 -27.8011 -25.6969 -18.1231 -8.80041 -12.3621 -41.6493 -6.46242 0.196161 -13.4294 24.2527 -4.69034 -4.05528 -28.2819 -4.55126 6.07566 
-45.2505 79.1625 -115.818 -82.5078 -31.8036 -95.0392 -168.48 32.4114 100.746 -58.7366 -22.7414 4.61393 56.8662 11.0132 6.91262 28.7808 5.1905e-006 4.31485e-006 179.135 53.9389 90.5893 -63.5084 24.7528 0.832143 69.7264 -0.577299 -0.325975 28.7808 1.31024e-005 2.74892e-005 -2.583 8.78151 -85.641 9.03447 -2.41389 -0.132016 -2.63423 -2.41738 -0.0255987 -25.1857 -2.26258 -0.851768 -5.17307 -2.26258 -0.851769 97.9913 -46.2212 -88.8101 2.13913 39.0044 -18.7748 -3.20662 0.703125 -16.8072 -5.37983 -0.320005 -0.0162415 -92.4053 -45.5334 73.9552 -23.4179 -26.4102 -18.7248 -6.63972 -14.2804 -23.0538 3.52233 -0.651572 -17.7596 14.8646 -2.73662 -7.29187 -23.9295 -2.48922 9.17623 
-47.9809 79.6713 -115.614 -83.6654 -28.928 -96.3962 -169.766 34.9776 102.128 -51.3852 -24.404 6.03651 48.265 9.82113 7.00992 28.7808 5.1905e-006 4.31485e-006 178.619 52.325 91.7099 -64.7344 24.0795 0.743252 69.0818 2.15269 1.06484 28.7808 1.31024e-005 2.74892e-005 -2.81011 8.45172 -85.7685 9.69229 -2.65187 0.188711 -1.97597 -2.641 0.305323 -24.5321 -2.58592 -0.617562 -4.51949 -2.58592 -0.61757 105.13 -45.382 -77.1081 -2.3745 38.2662 -11.6538 -2.26293 0.499705 -12.9106 -5.37983 -0.320005 -0.0162415 -91.8434 -40.2503 73.3325 -18.9272 -28.4377 -18.3085 -0.675532 11.1747 -7.62806 17.5044 2.28542 9.68902 7.50831 -1.68063 -10.9393 -21.1752 -1.66861 13.3484 
-50.5263 79.8772 -115.566 -84.2885 -25.5887 -97.5336 -170.38 37.0351 105.011 -41.346 -21.6369 7.95668 28.8014 10.6116 10.0884 28.7808 5.1905e-006 4.31485e-006 178.013 51.4225 92.8209 -66.6854 21.613 0.51341 67.911 3.37613 1.74917 28.7808 1.31024e-005 2.74892e-005 -2.9063 8.1037 -86.221 10.4372 -2.83951 0.771555 -1.23098 -2.8028 0.895858 -23.7911 -2.94 -0.118238 -3.77842 -2.93999 -0.118242 111.444 -40.0675 -65.6392 -3.33113 37.386 -8.63929 -1.49858 0.359104 -8.65027 -5.37983 -0.320005 -0.0162415 -90.248 -33.5425 74.0314 -15.9077 -31.413 -14.4662 -1.41342 20.5617 0.216064 19.5156 3.22796 12.6099 2.2302 -0.429036 -13.9964 -20.9184 -0.976838 16.7342 
-53.2633 80.1858 -115.305 -84.8224 -22.7128 -99.6204 -169.629 35.9799 108.783 -27.7429 -4.36986 7.15333 -0.335117 8.1795 11.2423 28.7808 5.1905e-006 4.31485e-006 178.513 49.8875 91.7249 -68.4723 18.0226 0.239102 68.2552 4.4666 2.28579 28.7808 1.31024e-005 2.74892e-005 -2.75798 7.75281 -87.2583 11.2302 -3.30015 1.35882 -0.437471 -3.23716 1.50286 -23.0057 -3.55578 0.303033 -2.99307 -3.55579 0.303023 114.36 -29.4791 -57.0881 -1.42827 36.1628 -8.77305 -1.36816 0.400932 -6.35675 -5.37983 -0.320005 -0.0162415 -87.2603 -28.0223 78.0037 -13.2147 -32.3932 -5.89357 -2.27484 7.9137 -0.768052 23.3299 5.57065 20.1285 -2.81543 1.85839 -9.27763 -19.5597 0.54763 15.4058 
-55.7592 81.2909 -115.005 -84.891 -19.0261 -102.742 -168.319 34.7169 110.933 -13.7443 -5.11027 6.20965 -16.2378 5.12234 7.77144 28.7808 5.1905e-006 4.31485e-006 179.896 47.9771 88.8643 -68.4664 14.1122 0.000366391 67.2728 4.03532 2.13029 28.7808 1.31024e-005 2.74892e-005 -2.42359 7.34647 -87.7609 12.1124 -3.2211 1.90585 0.443848 -3.13409 2.04581 -22.1203 -3.6448 0.848724 -2.10763 -3.64481 0.848715 114.657 -16.374 -50.1215 2.04324 37.9249 -10.7356 -3.7539 0.471624 -5.64543 -5.37983 -0.320005 -0.0162415 -84.0703 -28.041 84.3724 -6.32361 -34.7311 -5.45601 -1.58922 12.6927 -2.62585 21.0926 4.83419 19.0337 -9.73982 3.70594 -0.209123 -15.958 2.41939 10.816 
-57.6584 83.2979 -115.008 -83.8346 -16.1207 -104.993 -168.25 36.0632 112.946 -7.1119 -5.31061 6.09535 -15.5272 6.74869 12.1071 28.7808 5.1905e-006 4.31485e-006 -179.057 45.9958 86.398 -65.355 11.0048 -0.113229 64.9665 3.17149 1.81501 28.7808 1.31024e-005 2.74892e-005 -2.10973 6.80011 -87.9523 13.2448 -2.89751 2.44899 1.57454 -2.78698 2.57412 -20.9786 -3.49944 1.4645 -0.965913 -3.49941 1.46451 113.312 -3.8236 -44.1294 5.32927 39.7431 -14.2852 -5.82855 0.513311 -5.5014 -5.37983 -0.320005 -0.0162415 -82.2291 -25.5201 87.7059 1.30579 -36.5664 -5.65641 -2.73503 18.0282 0.0708464 18.7778 4.6751 20.7532 -18.6156 4.18894 4.93947 -11.3366 3.69103 8.38641 
-59.4867 85.8269 -115.193 -85.4672 -12.7159 -108.631 -167.103 36.4373 114.994 -1.84159 -7.36084 5.25358 -16.8629 6.92885 13.0586 28.7808 5.1905e-006 4.31485e-006 -178.24 40.5174 83.2776 -60.8645 7.78599 -0.213315 62.8549 1.80199 1.15795 28.7808 1.31024e-005 2.74892e-005 -1.86718 6.61189 -87.687 13.6363 -2.49316 3.35962 1.96318 -2.34296 3.46597 -20.5703 -3.38726 2.45543 -0.557613 -3.38729 2.45541 111.093 6.20787 -39.7473 9.10997 41.5811 -19.8181 -7.74745 0.620488 -6.10201 -5.37983 -0.320005 -0.0162415 -80.4297 -19.4674 90.8654 5.5789 -37.544 -6.41677 -3.41899 15.176 -0.00530659 18.9053 4.96562 22.0536 -26.6516 4.40907 5.81672 -6.81415 4.7394 8.47905 
-61.1556 89.5083 -115.831 -87.104 -8.90118 -111.273 -165.8 37.6442 116.959 -1.73486 2.75085 5.04438 -12.5777 6.96161 11.7962 28.7808 5.1905e-006 4.31485e-006 -178.781 33.1486 81.5138 -52.2327 4.05549 -0.276351 57.8201 0.365536 0.489376 28.7808 1.31024e-005 2.74892e-005 -1.74201 6.51479 -87.271 13.8274 -2.12795 4.22196 2.15104 -1.94027 4.31131 -20.3595 -3.29781 3.38854 -0.346886 -3.29776 3.38855 108.369 13.9678 -38.3959 11.2053 42.5134 -23.6864 -8.11199 0.560774 -6.46381 -5.37983 -0.320005 -0.0162415 -78.3618 -12.5955 95.396 7.54655 -39.3667 -10.2906 -2.21228 21.4001 -0.00462203 14.2802 3.34674 18.8279 -35.157 5.04457 5.42036 -1.45994 6.25281 8.98722 
-62.5973 93.971 -116.283 -88.0885 -5.293 -112.525 -165.278 40.1628 120.034 -0.104847 -0.713649 3.5644 -12.3965 7.94277 14.1162 28.7808 5.1905e-006 4.31485e-006 179.669 25.5304 80.1828 -40.2467 -2.47577 -0.447108 47.1514 -0.0380905 0.578446 28.7808 1.31024e-005 2.74892e-005 -1.497 6.46865 -87.4366 13.9381 -1.94974 4.73384 2.25972 -1.73974 4.8148 -20.2359 -3.28128 3.9309 -0.223276 -3.28129 3.93089 105.796 20.4699 -37.2421 14.1358 42.9912 -29.2273 -8.76362 0.484216 -5.06604 -5.37983 -0.320005 -0.0162415 -77.0156 -6.99565 99.1218 9.09959 -41.8464 -14.398 -0.952368 26.4553 -0.00310784 12.2132 2.7497 17.5431 -43.3776 5.10443 6.11032 3.95955 7.44467 9.28148 
